<svg version="1.1" id="Layer_1" xmlns="http://www.w3.org/2000/svg" xmlns:xlink="http://www.w3.org/1999/xlink" x="0px" y="0px"
	 width="100%" viewBox="0 0 446 278" enable-background="new 0 0 446 278" xml:space="preserve">
<path fill="#010216" opacity="1.000000" stroke="none" 
	d="
M320.000000,279.000000 
	C213.333328,279.000000 107.166664,279.000000 1.000000,279.000000 
	C1.000000,186.333328 1.000000,93.666664 1.000000,1.000000 
	C149.666672,1.000000 298.333344,1.000000 447.000000,1.000000 
	C447.000000,93.666664 447.000000,186.333328 447.000000,279.000000 
	C404.833344,279.000000 362.666656,279.000000 320.000000,279.000000 
M281.378571,123.952179 
	C281.227692,124.295959 281.076843,124.639732 280.413818,125.274574 
	C279.907501,126.099701 279.401215,126.924835 278.353607,128.141815 
	C277.257721,129.797989 276.161865,131.454163 274.539825,133.511353 
	C272.654297,136.324997 270.768738,139.138657 268.309113,142.289261 
	C265.730988,146.139832 263.152863,149.990417 260.050354,154.213669 
	C259.086487,155.537201 258.254120,156.986099 257.134003,158.160660 
	C253.827484,161.627975 254.320694,164.676727 258.330261,167.956955 
	C260.177948,165.218994 261.969208,162.564667 264.200226,159.392883 
	C266.462860,156.241577 268.725525,153.090271 271.592010,150.219482 
	C272.702759,151.849121 273.813477,153.478775 275.045380,155.781540 
	C276.353821,157.876617 277.662292,159.971680 279.149719,162.727097 
	C280.456177,164.812225 281.762665,166.897354 283.142517,169.594711 
	C283.719543,170.408478 284.296539,171.222244 284.993195,172.611786 
	C285.279877,172.854202 285.566589,173.096619 285.784576,173.430328 
	C285.784576,173.430328 285.824005,173.537537 285.874817,174.207748 
	C287.532135,176.925690 289.189484,179.643646 290.963593,183.035751 
	C292.623108,185.730286 294.282654,188.424835 296.043732,191.803680 
	C297.697968,194.529800 299.352203,197.255920 301.167175,200.661118 
	C302.712463,203.230972 304.257751,205.800827 305.959900,208.985580 
	C306.556610,209.838577 307.153351,210.691589 307.855835,212.213760 
	C310.583069,216.805954 313.310272,221.398132 316.083435,226.694260 
	C318.336395,230.489090 320.589386,234.283920 323.012665,238.828766 
	C326.585632,246.822281 318.741669,247.899475 315.227356,252.650116 
	C320.119476,252.650116 325.011627,252.650116 330.603638,252.844177 
	C332.061432,252.784317 333.519196,252.724457 335.819977,252.848984 
	C337.539886,252.784286 339.259796,252.719589 341.678009,252.837570 
	C342.873627,252.779083 344.069244,252.720612 345.977142,252.832977 
	C346.704254,252.781067 347.431396,252.729141 348.850433,252.850601 
	C351.317596,252.785843 353.784790,252.721069 356.919952,252.829193 
	C359.047821,252.784210 361.175659,252.739227 363.976135,252.859467 
	C366.022217,252.859467 368.068298,252.859467 370.114380,252.859467 
	C370.217743,252.287689 370.321136,251.715897 370.424530,251.144119 
	C367.288208,250.080505 364.151855,249.016907 360.514008,247.517105 
	C358.684814,246.670456 356.855591,245.823807 354.650055,244.461945 
	C353.153381,243.286591 351.656677,242.111252 349.872925,240.297211 
	C347.631134,237.078522 345.389343,233.859833 343.062347,229.994858 
	C342.481293,229.098328 341.900269,228.201813 341.103973,226.676956 
	C339.155273,223.416382 337.206604,220.155807 335.103455,216.194138 
	C333.420868,213.416641 331.738312,210.639145 329.938995,207.177231 
	C328.272430,204.506836 326.605896,201.836456 324.486084,198.600571 
	C322.685120,195.339035 320.884155,192.077499 318.958618,188.129883 
	C316.610352,184.095413 314.262115,180.060944 311.815063,175.355133 
	C310.600281,173.499603 309.385498,171.644089 308.152344,169.872314 
	C308.152344,169.872314 308.238068,169.870132 308.139191,169.408737 
	C308.139191,169.408737 307.848358,169.037140 307.783569,168.381516 
	C306.833954,166.928879 305.884308,165.476242 304.875977,163.408493 
	C304.300415,162.590057 303.724823,161.771637 302.985657,160.301147 
	C302.676544,159.990585 302.367462,159.680008 302.079407,158.723312 
	C300.974579,156.838348 299.869751,154.953384 298.606720,152.409363 
	C297.050415,149.947800 295.494110,147.486237 293.892395,144.327072 
	C292.297516,141.792053 290.702637,139.257034 289.011780,136.024643 
	C288.023590,133.351593 287.035400,130.678543 285.997437,127.999092 
	C285.997437,127.999092 286.024689,128.041260 286.584534,127.675018 
	C288.446472,124.809639 290.308411,121.944260 292.766846,118.752007 
	C295.123627,115.161827 297.480408,111.571655 300.143097,107.408051 
	C301.040070,106.248077 301.937012,105.088104 303.333771,103.482750 
	C304.581055,101.390396 305.828339,99.298035 307.720734,96.928474 
	C312.460022,90.215729 317.199310,83.502975 322.534790,76.502335 
	C324.383148,73.675613 326.231537,70.848885 328.634125,67.740036 
	C328.788940,67.173073 328.943756,66.606110 329.335602,65.742973 
	C329.432587,65.508804 329.511841,65.268768 330.081299,64.566986 
	C330.719574,63.672226 331.357880,62.777466 332.642822,61.803719 
	C333.724060,60.192356 334.805298,58.580994 336.415436,56.559967 
	C338.268372,54.328945 340.121307,52.097923 342.672455,49.897377 
	C347.115143,47.597740 351.557861,45.298103 356.748444,43.031197 
	C358.622437,42.385277 360.496429,41.739357 362.370422,41.093437 
	C362.294098,40.613491 362.217773,40.133545 362.141449,39.653599 
	C358.362915,39.653599 354.584351,39.653599 349.998718,39.543331 
	C347.345947,39.633972 344.693146,39.724617 341.194946,39.604454 
	C339.465912,39.674698 337.736847,39.744938 335.113220,39.566006 
	C331.483398,39.566006 327.853577,39.566006 324.223724,39.566006 
	C323.988770,40.012684 323.753784,40.459366 323.518799,40.906044 
	C328.660400,43.514481 334.262268,45.874748 330.483246,53.384083 
	C329.633118,54.859024 328.783020,56.333965 327.315704,58.109348 
	C324.502441,62.293514 321.689178,66.477684 318.307953,71.056725 
	C315.187134,75.661804 312.066315,80.266891 308.458679,85.077469 
	C308.332855,85.388008 308.207001,85.698540 307.717255,86.227844 
	C307.464691,86.416565 307.360046,86.667076 306.982849,87.372612 
	C306.936066,87.558723 306.889313,87.744835 306.286896,88.225006 
	C305.738190,89.114586 305.189484,90.004173 304.101257,91.215706 
	C303.375092,92.421989 302.648926,93.628273 301.385315,95.247299 
	C299.296875,98.296104 297.208435,101.344902 294.627167,104.792923 
	C292.696259,107.722664 290.765350,110.652405 288.265930,113.984810 
	C286.379852,116.863213 284.493805,119.741608 282.704803,122.776794 
	C282.704803,122.776794 282.851898,122.665611 282.267914,122.858322 
	C282.091736,123.218483 281.915558,123.578651 281.928894,123.940765 
	C281.928894,123.940765 281.921326,123.751343 281.378571,123.952179 
M130.863205,132.804642 
	C131.228439,132.919235 131.593658,133.033844 132.267380,133.684677 
	C133.157410,134.178955 134.047440,134.673218 135.134399,135.618073 
	C135.134399,135.618073 135.538803,135.897812 135.538803,135.897812 
	C135.538803,135.897812 136.030029,135.875595 136.506821,136.368347 
	C139.337524,137.882385 142.168228,139.396408 145.542313,141.358414 
	C148.362823,142.541046 151.183334,143.723663 154.564835,145.354507 
	C158.007477,146.673752 161.450119,147.992996 165.361450,149.806702 
	C166.886139,150.254242 168.410843,150.701767 170.414597,151.662827 
	C172.233353,152.238480 174.052124,152.814133 176.371750,153.844727 
	C178.083374,154.335434 179.794983,154.826141 182.017654,155.799683 
	C183.559830,156.256393 185.102005,156.713104 187.136169,157.667770 
	C188.679932,158.160339 190.223709,158.652893 192.214539,159.714035 
	C196.686859,161.532028 201.159195,163.350021 206.139526,165.672684 
	C208.723755,166.896942 211.307999,168.121185 214.303696,169.851898 
	C217.168655,171.674622 220.033615,173.497345 223.158829,175.904800 
	C225.096802,177.632629 227.034760,179.360443 229.236435,181.708603 
	C231.748932,185.665756 234.261414,189.622925 236.783356,194.360886 
	C239.596420,203.217148 239.032883,212.104340 236.823837,221.450668 
	C236.823837,221.450668 236.765625,221.937424 236.319824,222.295563 
	C236.182785,222.844223 236.045731,223.392868 235.375092,224.375397 
	C233.554230,227.489182 231.733383,230.602966 229.342392,234.098831 
	C225.828827,237.039383 222.315247,239.979919 218.144806,243.169525 
	C215.553986,244.310486 212.963150,245.451447 209.600204,246.669327 
	C208.354492,246.993149 207.108780,247.316986 205.492599,247.498306 
	C205.212845,247.543884 204.996628,247.686127 204.061462,247.946198 
	C202.042358,248.318710 200.023239,248.691238 197.240707,248.920471 
	C196.483948,249.032593 195.727188,249.144714 194.226807,249.168091 
	C193.483124,249.222214 192.739441,249.276352 191.307037,249.057755 
	C190.462921,249.332489 189.618820,249.607224 188.121719,249.858856 
	C187.495880,248.537338 186.702759,247.267227 186.277603,245.884018 
	C185.263199,242.583618 184.422424,239.229874 183.510880,235.496948 
	C183.448135,235.216782 183.289337,235.010605 183.091446,234.392746 
	C183.091446,234.392746 182.807785,233.994431 182.714111,233.301315 
	C178.666672,228.120667 174.619232,222.940018 170.202774,217.168182 
	C166.263565,213.673599 162.456192,210.013824 158.345963,206.733536 
	C154.660141,203.791992 152.914825,204.329346 151.725616,208.980225 
	C150.713547,212.938339 149.955460,217.130722 150.116531,221.178421 
	C150.338699,226.761871 151.530640,232.306747 152.311798,237.901047 
	C150.225464,236.866531 148.153671,235.839233 145.946320,234.282318 
	C145.272659,233.691055 144.598999,233.099777 143.817352,232.178680 
	C143.817352,232.178680 143.476913,232.111160 143.206787,231.735245 
	C142.853287,231.466583 142.499786,231.197906 142.012482,230.241104 
	C139.671860,227.499725 137.331253,224.758331 134.858139,221.324509 
	C132.202316,216.214340 129.546478,211.104172 126.977150,205.475281 
	C126.796532,205.188248 126.615913,204.901199 126.356827,204.558121 
	C126.356827,204.558121 126.453247,204.558807 126.411842,203.744614 
	C124.410164,195.742172 123.066368,187.847916 130.770569,180.920807 
	C131.996536,180.597549 133.222519,180.274307 134.782913,179.862900 
	C134.670319,184.029297 135.116272,187.510696 139.529495,186.919174 
	C143.922821,186.330338 143.953827,182.398575 143.597992,179.138733 
	C143.026703,173.905075 137.928879,171.980911 130.317291,174.073151 
	C121.890060,178.804443 117.609207,187.970245 119.383415,197.342010 
	C119.989868,200.545425 120.445732,203.777344 120.280151,206.952194 
	C116.894798,203.814575 113.509445,200.676956 109.760513,197.025162 
	C107.223091,194.904327 104.685677,192.783508 101.777946,190.121552 
	C97.868057,187.698151 93.958160,185.274750 89.608727,182.286743 
	C85.360619,181.064148 81.112503,179.841537 76.044891,178.272629 
	C72.372749,178.535172 68.700615,178.797729 64.295364,179.035873 
	C61.051617,181.461502 57.074078,183.329330 54.717571,186.429398 
	C49.879120,192.794495 53.064301,203.157761 59.918861,204.347702 
	C61.950649,204.700409 64.996468,203.654053 66.302689,202.145111 
	C67.140182,201.177673 66.338043,197.504486 65.074699,196.229309 
	C59.837208,190.942841 59.781090,189.539948 66.808716,184.897232 
	C71.544327,184.889542 76.279945,184.881851 81.667534,185.164673 
	C84.453171,186.367569 87.238815,187.570450 90.566666,189.204163 
	C94.030571,191.510834 97.494469,193.817505 101.244781,196.702072 
	C103.064575,198.180054 104.884361,199.658020 106.995796,201.749680 
	C109.774712,204.576874 112.553627,207.404083 115.676865,210.846024 
	C117.349663,212.770035 119.022453,214.694061 120.985481,216.951889 
	C119.001633,216.951889 117.539375,216.951889 115.554497,216.300613 
	C112.700386,216.256561 109.846275,216.212509 106.496140,216.065750 
	C106.337830,216.124466 106.179520,216.183182 105.168411,216.266891 
	C104.353371,216.482880 103.538322,216.698868 102.320366,216.742279 
	C101.915680,216.850418 101.510986,216.958572 101.065796,217.025620 
	C101.065796,217.025620 101.046440,217.080017 100.240578,216.988602 
	C95.833336,218.299057 91.249962,219.209015 87.074066,221.045517 
	C83.675735,222.540054 80.765488,225.144394 77.638817,227.256607 
	C80.584465,230.158859 83.522911,233.068558 86.492050,235.946594 
	C86.688667,236.137161 87.118927,236.086670 87.946884,236.693756 
	C93.293755,238.436920 98.640633,240.180069 104.787300,242.165009 
	C108.859367,242.112808 112.931427,242.060623 117.812439,242.076584 
	C119.877617,241.650421 121.942795,241.224258 124.729645,240.763260 
	C127.964180,239.253555 131.198715,237.743851 135.088501,236.141098 
	C137.037964,234.332245 138.987473,233.772415 141.193207,236.757660 
	C143.785492,238.532349 146.377792,240.307022 149.209671,242.724762 
	C154.417252,245.176056 159.624817,247.627365 165.333420,250.608810 
	C168.550903,251.432236 171.768387,252.255661 175.486450,253.569321 
	C176.632355,253.724701 177.778244,253.880096 179.418854,254.315018 
	C179.964310,254.333054 180.509781,254.351074 181.906876,254.685699 
	C184.922699,254.866592 187.938538,255.047470 191.647812,255.526779 
	C194.760391,255.292999 197.872986,255.059204 201.818909,254.931534 
	C205.201019,254.241302 208.583130,253.551056 212.735291,252.890076 
	C216.253845,251.637451 219.772400,250.384827 224.002487,249.090179 
	C227.051025,247.416077 230.099548,245.741974 233.818375,244.005692 
	C235.581604,242.682907 237.344849,241.360123 239.726135,239.817398 
	C241.532867,237.914780 243.339600,236.012146 245.031448,234.031906 
	C245.031448,234.031906 245.109741,234.146301 245.681274,233.893997 
	C246.420227,232.922974 247.159180,231.951950 247.977142,230.962524 
	C247.977142,230.962524 247.956223,230.884140 248.444763,230.558136 
	C248.747849,230.060638 249.050949,229.563141 249.883606,228.741852 
	C250.578568,227.475876 251.273529,226.209900 252.511307,224.522003 
	C254.161545,220.366531 256.382202,216.339920 257.355408,212.031509 
	C260.312775,198.939316 260.411133,186.007156 253.030991,173.272705 
	C250.023712,169.515549 247.016434,165.758377 243.768280,161.427536 
	C242.835114,160.648453 241.901947,159.869370 240.538361,158.576111 
	C237.351944,156.413788 234.165527,154.251465 230.536575,151.594330 
	C228.775345,150.686005 227.014114,149.777679 224.804916,148.319305 
	C221.981201,147.050674 219.157486,145.782028 216.300476,144.479507 
	C216.300476,144.479507 216.253067,144.484314 215.828247,144.052338 
	C214.888931,143.701828 213.949615,143.351318 212.549332,142.496170 
	C210.824371,141.932602 209.099396,141.369049 206.875900,140.273666 
	C203.403076,139.010345 199.930267,137.747025 196.422485,136.499039 
	C196.422485,136.499039 196.385605,136.504486 196.006332,136.164352 
	C195.673111,136.150589 195.339905,136.136826 194.416595,135.720444 
	C191.946518,134.858170 189.476440,133.995880 186.460022,132.762970 
	C185.635330,132.524170 184.810623,132.285355 183.447021,131.588577 
	C181.632217,131.039032 179.817429,130.489487 177.516449,129.453629 
	C175.342957,128.676315 173.169449,127.898994 170.437057,126.748009 
	C169.398071,126.374039 168.359070,126.000069 167.113846,125.840340 
	C167.113846,125.840340 167.351181,125.661163 167.034164,125.241043 
	C166.693726,125.204041 166.353287,125.167038 165.441483,124.695267 
	C161.377167,122.757614 157.312866,120.819962 152.879440,118.312614 
	C151.275070,117.481056 149.670715,116.649490 147.733047,115.215614 
	C145.178955,113.402641 142.624847,111.589661 139.836807,109.174706 
	C138.262985,107.667717 136.689148,106.160728 135.037201,104.021141 
	C134.017578,102.683266 132.997971,101.345383 131.971970,99.420013 
	C131.667114,98.941200 131.362259,98.462387 131.046387,97.474403 
	C130.955307,97.331139 130.864243,97.187874 130.600525,96.340233 
	C129.517609,92.857201 127.837479,89.437050 127.462898,85.879433 
	C126.304848,74.880882 129.170212,64.834366 136.457901,55.611530 
	C140.326813,52.421860 144.195740,49.232193 148.757996,45.782776 
	C156.165558,43.814919 163.573135,41.847061 171.489624,40.030910 
	C171.659622,39.981922 171.829605,39.932934 172.619476,40.010075 
	C173.015366,39.881531 173.411240,39.752987 174.279922,39.852425 
	C174.794983,39.801956 175.310059,39.751492 176.546280,39.934349 
	C180.015686,40.335194 183.485077,40.736042 187.513245,41.629505 
	C191.669250,42.635540 195.825241,43.641575 200.610031,45.007858 
	C201.732529,45.359917 202.855042,45.711971 204.486816,46.514465 
	C206.989746,47.627983 209.492661,48.741497 212.255646,50.113548 
	C212.255646,50.113548 212.621414,50.087498 212.951920,50.553616 
	C213.305466,50.671104 213.658997,50.788593 214.448593,51.395550 
	C215.967865,52.261810 217.487137,53.128075 219.372818,54.554031 
	C222.553833,56.788834 225.734848,59.023636 229.212570,61.839966 
	C232.455734,64.903656 235.698883,67.967346 239.284912,71.608734 
	C241.555283,74.392181 243.825638,77.175621 246.300308,80.608093 
	C249.549759,86.068474 252.799210,91.528854 256.048645,96.989227 
	C256.421234,93.730225 255.731384,90.953056 255.097015,88.163277 
	C253.092499,79.348106 251.108749,70.528214 249.085449,60.905216 
	C246.799881,50.776253 244.514313,40.647285 242.228745,30.518322 
	C241.569580,30.492880 240.910400,30.467436 240.251236,30.441994 
	C241.200882,36.164650 241.157532,41.516293 234.977448,44.986797 
	C231.334229,44.951233 227.691025,44.915668 223.305328,44.751648 
	C219.839874,43.176846 216.374420,41.602039 212.386475,39.558620 
	C209.595795,38.734436 206.805130,37.910255 203.261215,36.856106 
	C202.213745,36.878456 201.166275,36.900803 199.795593,36.237076 
	C195.863358,35.517559 191.931137,34.798046 187.208069,33.897221 
	C183.788605,33.879745 180.369125,33.862270 176.067947,33.622063 
	C174.365158,33.947933 172.662384,34.273804 170.527710,34.705582 
	C169.719727,34.816872 168.911728,34.928162 167.185303,34.946220 
	C160.777130,36.261742 154.368958,37.577259 147.437302,38.904102 
	C147.295074,39.005287 147.152863,39.106468 146.443741,39.182358 
	C145.955353,39.437286 145.466965,39.692219 144.347488,39.907696 
	C143.857605,40.254726 143.367706,40.601757 142.407623,40.994190 
	C142.407623,40.994190 142.027557,41.274696 141.354965,41.347225 
	C139.605118,42.367332 137.855286,43.387440 135.501297,44.658863 
	C131.625183,48.087528 127.749077,51.516190 123.246323,55.110737 
	C122.462944,56.057125 121.679573,57.003510 120.322227,58.274628 
	C119.134125,60.153214 117.946014,62.031803 116.284943,64.247864 
	C116.135910,64.798531 115.986885,65.349197 115.945755,65.942963 
	C115.945755,65.942963 115.870010,65.854851 115.335846,66.313942 
	C113.729576,71.168030 112.123306,76.022125 110.213806,81.575363 
	C110.158173,87.047340 110.102539,92.519318 109.943916,98.793282 
	C110.105263,99.846558 110.266609,100.899826 110.328018,102.655144 
	C110.903580,104.395050 111.479149,106.134949 111.999298,108.634201 
	C114.631470,113.167427 117.263634,117.700661 120.023659,122.671715 
	C120.201561,122.957054 120.458626,123.096886 120.981606,123.748215 
	C123.659431,126.148338 126.337257,128.548462 129.049011,131.001495 
	C129.049011,131.001495 129.096497,130.960342 129.315186,131.493576 
	C129.779434,131.829330 130.243668,132.165070 130.751785,132.310669 
	C130.751785,132.310669 130.556686,132.306641 130.863205,132.804642 
z"/>
<path fill="#D4B77C" opacity="1.000000" stroke="none" 
	d="
M131.057404,97.983574 
	C131.362259,98.462387 131.667114,98.941200 131.613464,99.842651 
	C130.503647,104.570358 129.367950,108.851219 129.094849,113.186417 
	C128.723206,119.085403 129.010391,125.025902 129.015076,130.948593 
	C126.337257,128.548462 123.659431,126.148338 121.213242,123.245476 
	C122.154266,121.230446 123.355896,119.752686 123.464935,118.198273 
	C123.659035,115.431099 123.036003,112.618042 123.027161,109.823311 
	C122.974640,93.215668 123.000259,76.607780 123.226624,59.768806 
	C123.593399,58.006718 123.733185,56.475784 123.872971,54.944855 
	C127.749077,51.516190 131.625183,48.087528 135.938202,44.795082 
	C135.709793,48.584351 132.340042,52.115643 135.878647,55.957966 
	C129.170212,64.834366 126.304848,74.880882 127.462898,85.879433 
	C127.837479,89.437050 129.517609,92.857201 130.605591,96.821129 
	C130.569901,97.629578 130.718811,97.856766 131.057404,97.983574 
M126.147362,67.269981 
	C126.576233,67.530617 127.005112,67.791252 127.433983,68.051888 
	C127.430267,67.336464 127.426552,66.621040 127.422836,65.905617 
	C126.996834,66.171600 126.570839,66.437584 126.147362,67.269981 
z"/>
<path fill="#AF8145" opacity="1.000000" stroke="none" 
	d="
M245.146317,234.109512 
	C243.339600,236.012146 241.532867,237.914780 239.058838,239.818466 
	C238.150528,238.349838 237.898880,236.881775 237.670624,235.410110 
	C237.077820,231.588104 236.495300,227.764496 235.908691,223.941528 
	C236.045731,223.392868 236.182785,222.844223 236.693878,222.050262 
	C237.345566,221.546188 237.332077,221.279449 237.027466,221.004745 
	C239.032883,212.104340 239.596420,203.217148 236.955170,193.539551 
	C237.418396,184.138336 237.499649,175.543091 238.124893,166.987610 
	C238.321304,164.300232 239.979614,161.719711 240.968781,159.090271 
	C241.901947,159.869370 242.835114,160.648453 243.683502,161.955978 
	C243.986984,164.344238 244.724380,166.206848 244.709625,168.063461 
	C244.557205,187.251709 244.179932,206.439148 244.214142,225.626205 
	C244.217316,227.413300 246.613190,229.196121 247.898117,230.980927 
	C247.159180,231.951950 246.420227,232.922974 245.328720,233.758331 
	C244.698578,233.306778 244.420990,232.990906 244.143402,232.675049 
	C243.993179,232.859604 243.842957,233.044144 243.692719,233.228699 
	C244.177246,233.522293 244.661789,233.815903 245.146317,234.109512 
z"/>
<path fill="#AA7A3E" opacity="1.000000" stroke="none" 
	d="
M247.937622,230.971725 
	C246.613190,229.196121 244.217316,227.413300 244.214142,225.626205 
	C244.179932,206.439148 244.557205,187.251709 244.709625,168.063461 
	C244.724380,166.206848 243.986984,164.344238 243.803925,162.242813 
	C247.016434,165.758377 250.023712,169.515549 252.721375,173.646423 
	C251.784256,174.616943 250.607346,175.216202 250.609985,175.810181 
	C250.668884,188.948471 250.805206,202.087189 251.060333,215.223251 
	C251.123337,218.468124 251.653244,221.703949 251.968506,224.943924 
	C251.273529,226.209900 250.578568,227.475876 249.351105,229.043823 
	C248.531143,229.858566 248.243668,230.371353 247.956207,230.884125 
	C247.956223,230.884140 247.977142,230.962524 247.937622,230.971725 
z"/>
<path fill="#EFD996" opacity="1.000000" stroke="none" 
	d="
M164.832397,250.078674 
	C159.624817,247.627365 154.417252,245.176056 149.086365,242.051132 
	C148.002670,239.188980 147.042282,237.000458 146.081894,234.811935 
	C148.153671,235.839233 150.225464,236.866531 152.311798,237.901047 
	C151.530640,232.306747 150.338699,226.761871 150.116531,221.178421 
	C149.955460,217.130722 150.713547,212.938339 151.725616,208.980225 
	C152.914825,204.329346 154.660141,203.791992 158.345963,206.733536 
	C162.456192,210.013824 166.263565,213.673599 170.030258,217.646561 
	C169.211624,219.509125 168.565521,220.893295 167.617111,222.115784 
	C163.874741,218.811188 160.434677,215.668289 156.593369,212.158829 
	C153.620956,223.212143 155.454575,231.928009 163.094955,239.498215 
	C164.628906,240.965805 166.102997,242.085327 168.239365,243.707825 
	C167.164078,245.718582 165.998230,247.898621 164.832397,250.078674 
z"/>
<path fill="#F6DE98" opacity="1.000000" stroke="none" 
	d="
M316.037476,225.990326 
	C313.310272,221.398132 310.583069,216.805954 307.987610,211.460724 
	C308.413544,208.604782 308.934631,206.504761 308.961517,204.398422 
	C309.062622,196.469788 308.988098,188.539047 309.013092,180.609207 
	C309.019684,178.510895 308.550934,176.034332 311.913879,176.026474 
	C314.262115,180.060944 316.610352,184.095413 319.001404,188.895660 
	C319.029663,200.411819 319.121185,211.164719 318.869781,221.909576 
	C318.837463,223.291153 317.025208,224.631104 316.037476,225.990326 
z"/>
<path fill="#F6DE98" opacity="1.000000" stroke="none" 
	d="
M153.248550,118.882309 
	C157.312866,120.819962 161.377167,122.757614 165.912048,125.083008 
	C166.705475,125.534225 167.028320,125.597702 167.351181,125.661163 
	C167.351181,125.661163 167.113846,125.840340 167.085236,126.131958 
	C166.371887,129.386810 165.319519,132.321594 165.087509,135.319839 
	C164.728378,139.961212 164.929306,144.645920 164.892761,149.312241 
	C161.450119,147.992996 158.007477,146.673752 154.190460,144.806732 
	C153.113495,142.955215 151.890671,141.682816 151.809845,140.341629 
	C151.602005,136.892319 151.777771,133.403580 152.029678,129.947311 
	C152.299210,126.249016 152.831146,122.569832 153.248550,118.882309 
z"/>
<path fill="#AA7A3E" opacity="1.000000" stroke="none" 
	d="
M235.890488,44.916222 
	C241.157532,41.516293 241.200882,36.164650 240.251236,30.441994 
	C240.910400,30.467436 241.569580,30.492880 242.228745,30.518322 
	C244.514313,40.647285 246.799881,50.776253 249.069199,61.739159 
	C248.828934,65.151497 247.563507,68.290962 248.589722,70.195808 
	C250.999893,74.669495 249.041016,77.259079 246.096008,79.959061 
	C243.825638,77.175621 241.555283,74.392181 239.330612,71.073318 
	C239.558853,68.752663 240.000183,66.949493 239.878021,65.185349 
	C239.410324,58.431786 242.178207,51.163280 236.594330,45.102489 
	C236.356873,45.051723 235.890488,44.916222 235.890488,44.916222 
z"/>
<path fill="#CEB075" opacity="1.000000" stroke="none" 
	d="
M122.999634,59.999969 
	C123.000259,76.607780 122.974640,93.215668 123.027161,109.823311 
	C123.036003,112.618042 123.659035,115.431099 123.464935,118.198273 
	C123.355896,119.752686 122.154266,121.230446 121.119858,122.916969 
	C120.458626,123.096886 120.201561,122.957054 119.933563,122.052277 
	C119.228600,117.725159 118.176308,114.028404 118.083382,110.307686 
	C117.835114,100.366791 118.223297,90.408363 117.903046,80.471581 
	C117.745468,75.582581 116.579605,70.726067 115.870010,65.854851 
	C115.870010,65.854851 115.945755,65.942963 116.180405,65.897415 
	C116.529343,65.204712 116.643623,64.557549 116.757912,63.910389 
	C117.946014,62.031803 119.134125,60.153214 120.847198,58.286987 
	C121.914665,58.866222 122.457146,59.433098 122.999634,59.999969 
z"/>
<path fill="#A17036" opacity="1.000000" stroke="none" 
	d="
M252.239899,224.732971 
	C251.653244,221.703949 251.123337,218.468124 251.060333,215.223251 
	C250.805206,202.087189 250.668884,188.948471 250.609985,175.810181 
	C250.607346,175.216202 251.784256,174.616943 252.782410,173.995560 
	C260.411133,186.007156 260.312775,198.939316 257.355408,212.031509 
	C256.382202,216.339920 254.161545,220.366531 252.239899,224.732971 
z"/>
<path fill="#CFAE6F" opacity="1.000000" stroke="none" 
	d="
M196.457443,136.483704 
	C199.930267,137.747025 203.403076,139.010345 206.954895,140.786301 
	C207.322052,148.489105 207.679886,155.678146 207.795166,162.871078 
	C207.807251,163.624969 206.387146,164.401810 205.631516,165.167999 
	C201.159195,163.350021 196.686859,161.532028 192.288574,159.197281 
	C195.519562,156.971329 196.233154,154.309250 196.089813,150.840836 
	C195.892578,146.068344 196.305771,141.270615 196.457443,136.483704 
z"/>
<path fill="#C6A76F" opacity="1.000000" stroke="none" 
	d="
M115.602928,66.084396 
	C116.579605,70.726067 117.745468,75.582581 117.903046,80.471581 
	C118.223297,90.408363 117.835114,100.366791 118.083382,110.307686 
	C118.176308,114.028404 119.228600,117.725159 119.869644,121.833359 
	C117.263634,117.700661 114.631470,113.167427 112.040733,107.873268 
	C111.530762,105.392593 110.979355,103.672852 110.427956,101.953102 
	C110.266609,100.899826 110.105263,99.846558 110.232224,98.058517 
	C110.818718,93.289780 111.221016,89.259354 111.359299,85.219902 
	C111.408478,83.783295 110.816391,82.324745 110.517044,80.876213 
	C112.123306,76.022125 113.729576,71.168030 115.602928,66.084396 
z"/>
<path fill="#E4C684" opacity="1.000000" stroke="none" 
	d="
M324.939331,199.166061 
	C326.605896,201.836456 328.272430,204.506836 329.976440,207.949646 
	C329.759735,211.164490 329.377533,213.601562 329.275055,216.050354 
	C328.954132,223.722397 328.711182,231.398132 328.504944,239.074219 
	C328.461914,240.675415 328.653076,242.290146 328.828949,243.888443 
	C329.150757,246.813019 329.541656,249.729980 329.903748,252.650116 
	C325.011627,252.650116 320.119476,252.650116 315.227356,252.650116 
	C318.741669,247.899475 326.585632,246.822281 323.198547,238.165237 
	C323.795074,226.804672 324.201385,216.107483 324.620117,205.410767 
	C324.701660,203.328232 324.831696,201.247574 324.939331,199.166061 
z"/>
<path fill="#B4884B" opacity="1.000000" stroke="none" 
	d="
M240.753571,158.833191 
	C239.979614,161.719711 238.321304,164.300232 238.124893,166.987610 
	C237.499649,175.543091 237.418396,184.138336 236.950439,193.149139 
	C234.261414,189.622925 231.748932,185.665756 229.131042,180.971390 
	C229.676804,170.852509 230.327957,161.470825 230.979095,152.089157 
	C234.165527,154.251465 237.351944,156.413788 240.753571,158.833191 
z"/>
<path fill="#D4B77C" opacity="1.000000" stroke="none" 
	d="
M134.433258,236.234161 
	C131.198715,237.743851 127.964180,239.253555 124.271156,240.483643 
	C122.516907,238.793655 121.221146,237.383286 120.063446,235.681183 
	C121.016502,235.175583 121.831497,234.961716 122.767769,235.011520 
	C123.231804,235.643738 123.574570,236.012268 123.917336,236.380814 
	C124.091713,236.190216 124.266090,235.999634 124.440460,235.809052 
	C123.865311,235.434067 123.290154,235.059097 122.967804,234.439896 
	C124.441063,233.697784 125.661507,233.199921 128.182953,232.171295 
	C124.155334,231.164536 121.583656,230.521698 118.999397,229.548859 
	C118.006424,228.199158 117.026031,227.179474 116.455406,226.070053 
	C119.857971,225.626816 122.851158,225.276123 125.836288,224.866714 
	C125.858871,224.863602 125.771454,224.058441 125.740822,223.445984 
	C125.494186,223.236252 125.242134,223.208313 124.696625,223.175476 
	C123.850975,222.985687 123.298775,222.800766 122.846817,222.186874 
	C122.964470,217.839005 122.981873,213.920135 123.011650,209.669724 
	C123.026917,208.896042 123.029800,208.453873 123.270058,207.748505 
	C124.489372,206.509796 125.471313,205.534302 126.453247,204.558807 
	C126.453247,204.558807 126.356827,204.558121 126.370010,204.842529 
	C126.552353,205.415955 126.721504,205.704987 126.890656,205.994003 
	C129.546478,211.104172 132.202316,216.214340 134.685272,221.904572 
	C129.436646,224.426971 130.474686,228.670868 131.153656,232.411469 
	C131.412415,233.837158 133.292221,234.968613 134.433258,236.234161 
z"/>
<path fill="#EACF8C" opacity="1.000000" stroke="none" 
	d="
M324.712708,198.883316 
	C324.831696,201.247574 324.701660,203.328232 324.620117,205.410767 
	C324.201385,216.107483 323.795074,226.804672 323.113403,237.790237 
	C320.589386,234.283920 318.336395,230.489090 316.060486,226.342300 
	C317.025208,224.631104 318.837463,223.291153 318.869781,221.909576 
	C319.121185,211.164719 319.029663,200.411819 319.063660,189.238708 
	C320.884155,192.077499 322.685120,195.339035 324.712708,198.883316 
z"/>
<path fill="#876138" opacity="1.000000" stroke="none" 
	d="
M65.986664,184.934753 
	C59.781090,189.539948 59.837208,190.942841 65.074699,196.229309 
	C66.338043,197.504486 67.140182,201.177673 66.302689,202.145111 
	C64.996468,203.654053 61.950649,204.700409 59.918861,204.347702 
	C53.064301,203.157761 49.879120,192.794495 54.717571,186.429398 
	C57.074078,183.329330 61.051617,181.461502 64.805573,179.244705 
	C65.539413,181.280609 65.763039,183.107681 65.986664,184.934753 
z"/>
<path fill="#D0B378" opacity="1.000000" stroke="none" 
	d="
M295.942200,191.119370 
	C294.282654,188.424835 292.623108,185.730286 291.002350,182.264832 
	C291.360809,179.389694 291.927063,177.288879 291.956329,175.180634 
	C292.066162,167.263809 291.865997,159.340744 292.089783,151.428711 
	C292.150604,149.278336 293.292206,147.158508 293.937805,145.024658 
	C295.494110,147.486237 297.050415,149.947800 298.480408,153.089081 
	C298.233826,159.868622 298.330994,165.982697 297.933472,172.064407 
	C297.517273,178.432251 296.625885,184.769012 295.942200,191.119370 
z"/>
<path fill="#C0975B" opacity="1.000000" stroke="none" 
	d="
M222.898575,175.320068 
	C220.033615,173.497345 217.168655,171.674622 214.178909,169.194885 
	C214.703278,165.515991 215.685318,162.520340 215.925949,159.466278 
	C216.317108,154.502090 216.223038,149.499664 216.333771,144.513382 
	C219.157486,145.782028 221.981201,147.050674 224.734802,148.908447 
	C224.443741,151.916626 224.168869,154.332153 224.012405,156.755341 
	C223.612961,162.941772 223.266327,169.131592 222.898575,175.320068 
z"/>
<path fill="#B49461" opacity="1.000000" stroke="none" 
	d="
M278.894897,127.749962 
	C279.401215,126.924835 279.907501,126.099701 280.882385,124.965523 
	C281.541077,124.354759 281.731201,124.053055 281.921326,123.751343 
	C281.921326,123.751343 281.928894,123.940765 282.082336,123.787048 
	C282.441162,123.310753 282.646545,122.988182 282.851898,122.665619 
	C282.851898,122.665611 282.704803,122.776794 283.017670,122.856567 
	C284.228577,124.637978 285.126648,126.339615 286.024689,128.041260 
	C286.024689,128.041260 285.997437,127.999092 285.772095,128.290344 
	C285.044769,130.144135 284.108215,131.707382 284.110748,133.269135 
	C284.128357,144.164810 284.378723,155.059982 284.426544,165.955887 
	C284.430969,166.962753 283.542816,167.973526 283.069122,168.982483 
	C281.762665,166.897354 280.456177,164.812225 279.134064,162.005585 
	C279.369537,160.160690 279.862885,159.031036 279.833954,157.914932 
	C279.573029,147.858582 279.220520,137.804626 278.894897,127.749962 
z"/>
<path fill="#9F7D50" opacity="1.000000" stroke="none" 
	d="
M87.440506,236.148315 
	C87.118927,236.086670 86.688667,236.137161 86.492050,235.946594 
	C83.522911,233.068558 80.584465,230.158859 77.638809,227.256607 
	C80.765488,225.144394 83.675735,222.540054 87.074066,221.045517 
	C91.249962,219.209015 95.833336,218.299057 100.771744,217.335144 
	C102.874908,218.998322 104.446899,220.314957 105.620712,221.775681 
	C98.831131,223.509491 92.439720,225.099213 86.048309,226.688950 
	C86.087219,227.304779 86.126129,227.920609 86.165039,228.536438 
	C89.139893,230.192017 92.114746,231.847595 94.895744,233.791260 
	C92.281433,234.768982 89.860970,235.458649 87.440506,236.148315 
z"/>
<path fill="#D9BA79" opacity="1.000000" stroke="none" 
	d="
M330.253693,252.747147 
	C329.541656,249.729980 329.150757,246.813019 328.828949,243.888443 
	C328.653076,242.290146 328.461914,240.675415 328.504944,239.074219 
	C328.711182,231.398132 328.954132,223.722397 329.275055,216.050354 
	C329.377533,213.601562 329.759735,211.164490 330.034851,208.291855 
	C331.738312,210.639145 333.420868,213.416641 334.906311,216.805374 
	C334.798462,229.165939 334.887726,240.915268 334.976990,252.664612 
	C333.519196,252.724457 332.061432,252.784317 330.253693,252.747147 
z"/>
<path fill="#C8A063" opacity="1.000000" stroke="none" 
	d="
M216.317139,144.496445 
	C216.223038,149.499664 216.317108,154.502090 215.925949,159.466278 
	C215.685318,162.520340 214.703278,165.515991 213.973175,168.941650 
	C211.307999,168.121185 208.723755,166.896942 205.885529,165.420349 
	C206.387146,164.401810 207.807251,163.624969 207.795166,162.871078 
	C207.679886,155.678146 207.322052,148.489105 207.204163,141.052216 
	C209.099396,141.369049 210.824371,141.932602 212.656723,143.037369 
	C212.894058,147.859787 214.853897,145.092163 216.253067,144.484314 
	C216.253067,144.484314 216.300476,144.479507 216.317139,144.496445 
z"/>
<path fill="#B4884B" opacity="1.000000" stroke="none" 
	d="
M236.831787,45.153255 
	C242.178207,51.163280 239.410324,58.431786 239.878021,65.185349 
	C240.000183,66.949493 239.558853,68.752663 239.159180,70.784470 
	C235.698883,67.967346 232.455734,64.903656 229.141937,61.154541 
	C229.714462,58.128048 230.863129,55.793064 230.891403,53.444592 
	C230.943878,49.086712 232.295166,46.094234 236.831787,45.153255 
z"/>
<path fill="#DBBF81" opacity="1.000000" stroke="none" 
	d="
M295.992981,191.461517 
	C296.625885,184.769012 297.517273,178.432251 297.933472,172.064407 
	C298.330994,165.982697 298.233826,159.868622 298.559509,153.418610 
	C299.869751,154.953384 300.974579,156.838348 302.192535,159.350281 
	C302.586884,160.302567 302.868073,160.627884 303.149261,160.953201 
	C303.724823,161.771637 304.300415,162.590057 304.568970,163.885681 
	C303.506744,166.030182 302.176880,167.671539 302.100220,169.369476 
	C301.831818,175.314789 302.117798,181.282974 301.953857,187.235886 
	C301.836670,191.490082 301.335999,195.733704 301.006439,199.982056 
	C299.352203,197.255920 297.697968,194.529800 295.992981,191.461517 
z"/>
<path fill="#C9AC76" opacity="1.000000" stroke="none" 
	d="
M126.432549,204.151703 
	C125.471313,205.534302 124.489372,206.509796 122.974472,207.704880 
	C121.951141,207.615067 121.460770,207.305649 120.970398,206.996246 
	C120.445732,203.777344 119.989868,200.545425 119.383415,197.342010 
	C117.609207,187.970245 121.890060,178.804443 130.644653,174.419800 
	C130.680664,176.954636 130.389297,179.142853 130.097931,181.331055 
	C123.066368,187.847916 124.410164,195.742172 126.432549,204.151703 
z"/>
<path fill="#C6A76F" opacity="1.000000" stroke="none" 
	d="
M293.915100,144.675873 
	C293.292206,147.158508 292.150604,149.278336 292.089783,151.428711 
	C291.865997,159.340744 292.066162,167.263809 291.956329,175.180634 
	C291.927063,177.288879 291.360809,179.389694 290.943970,181.927750 
	C289.189484,179.643646 287.532135,176.925690 286.102966,173.506668 
	C286.887024,164.392212 287.404846,155.976089 288.016602,147.566772 
	C288.280090,143.944565 288.738129,140.336502 289.107788,136.722015 
	C290.702637,139.257034 292.297516,141.792053 293.915100,144.675873 
z"/>
<path fill="#B98F53" opacity="1.000000" stroke="none" 
	d="
M223.028702,175.612427 
	C223.266327,169.131592 223.612961,162.941772 224.012405,156.755341 
	C224.168869,154.332153 224.443741,151.916626 224.958801,149.183472 
	C227.014114,149.777679 228.775345,150.686005 230.757843,151.841736 
	C230.327957,161.470825 229.676804,170.852509 228.999191,180.661224 
	C227.034760,179.360443 225.096802,177.632629 223.028702,175.612427 
z"/>
<path fill="#EFD692" opacity="1.000000" stroke="none" 
	d="
M153.063995,118.597458 
	C152.831146,122.569832 152.299210,126.249016 152.029678,129.947311 
	C151.777771,133.403580 151.602005,136.892319 151.809845,140.341629 
	C151.890671,141.682816 153.113495,142.955215 153.909973,144.582611 
	C151.183334,143.723663 148.362823,142.541046 145.272415,140.671646 
	C145.002274,133.935608 144.746628,127.869560 145.142502,121.846321 
	C145.278198,119.781715 147.044830,117.824303 148.066345,115.817924 
	C149.670715,116.649490 151.275070,117.481056 153.063995,118.597458 
z"/>
<path fill="#CFAE6F" opacity="1.000000" stroke="none" 
	d="
M335.398499,252.756790 
	C334.887726,240.915268 334.798462,229.165939 334.983582,217.155914 
	C337.206604,220.155807 339.155273,223.416382 341.092346,227.429108 
	C338.919128,236.330353 337.418060,244.482178 340.979706,252.654892 
	C339.259796,252.719589 337.539886,252.784286 335.398499,252.756790 
z"/>
<path fill="#EACF8C" opacity="1.000000" stroke="none" 
	d="
M147.899689,115.516769 
	C147.044830,117.824303 145.278198,119.781715 145.142502,121.846321 
	C144.746628,127.869560 145.002274,133.935608 145.000732,140.447662 
	C142.168228,139.396408 139.337524,137.882385 136.477325,135.825958 
	C137.298920,133.302597 138.700546,131.375153 138.899368,129.330719 
	C139.530975,122.836166 139.714218,116.297997 140.070755,109.776688 
	C142.624847,111.589661 145.178955,113.402641 147.899689,115.516769 
z"/>
<path fill="#E1C688" opacity="1.000000" stroke="none" 
	d="
M301.086792,200.321594 
	C301.335999,195.733704 301.836670,191.490082 301.953857,187.235886 
	C302.117798,181.282974 301.831818,175.314789 302.100220,169.369476 
	C302.176880,167.671539 303.506744,166.030182 304.598328,164.193237 
	C305.884308,165.476242 306.833954,166.928879 307.737244,168.839722 
	C307.682404,169.623367 307.864777,169.814102 308.238068,169.870132 
	C308.238068,169.870132 308.152344,169.872314 308.062439,170.226898 
	C307.322083,172.968613 306.172943,175.342209 306.107788,177.745209 
	C305.831024,187.948944 305.875732,198.161392 305.803040,208.370667 
	C304.257751,205.800827 302.712463,203.230972 301.086792,200.321594 
z"/>
<path fill="#EFD996" opacity="1.000000" stroke="none" 
	d="
M170.980698,39.879204 
	C163.573135,41.847061 156.165558,43.814919 148.121048,45.741478 
	C145.665253,44.225021 143.846405,42.749855 142.027557,41.274696 
	C142.027557,41.274696 142.407623,40.994190 142.950134,40.962738 
	C143.987976,40.603245 144.483276,40.275200 144.978577,39.947151 
	C145.466965,39.692219 145.955353,39.437286 146.857559,39.294346 
	C147.648727,39.445210 147.878540,39.274025 147.960785,38.892780 
	C154.368958,37.577259 160.777130,36.261742 167.992645,35.061981 
	C169.509521,35.218868 170.219070,35.259991 170.792816,35.565613 
	C170.764923,37.179806 170.872818,38.529503 170.980698,39.879204 
z"/>
<path fill="#D9BA79" opacity="1.000000" stroke="none" 
	d="
M196.439972,136.491364 
	C196.305771,141.270615 195.892578,146.068344 196.089813,150.840836 
	C196.233154,154.309250 195.519562,156.971329 192.065033,158.912994 
	C190.223709,158.652893 188.679932,158.160339 187.287460,157.274017 
	C190.097794,148.913666 190.043747,140.996460 187.006363,133.133591 
	C189.476440,133.995880 191.946518,134.858170 194.903900,136.090912 
	C195.722672,136.475739 196.054138,136.490112 196.385605,136.504486 
	C196.385605,136.504486 196.422485,136.499039 196.439972,136.491364 
z"/>
<path fill="#EACF8C" opacity="1.000000" stroke="none" 
	d="
M170.995956,127.121674 
	C173.169449,127.898994 175.342957,128.676315 177.758713,130.169113 
	C177.290939,138.386322 176.580902,145.888046 175.870880,153.389771 
	C174.052124,152.814133 172.233353,152.238480 170.344666,151.013519 
	C170.515152,142.616684 170.755554,134.869186 170.995956,127.121674 
z"/>
<path fill="#BF9E68" opacity="1.000000" stroke="none" 
	d="
M289.059814,136.373322 
	C288.738129,140.336502 288.280090,143.944565 288.016602,147.566772 
	C287.404846,155.976089 286.887024,164.392212 286.077576,173.171570 
	C285.824005,173.537537 285.784576,173.430328 285.717957,173.122437 
	C285.392090,172.555038 285.132843,172.295517 284.873566,172.036011 
	C284.296539,171.222244 283.719543,170.408478 283.105835,169.288605 
	C283.542816,167.973526 284.430969,166.962753 284.426544,165.955887 
	C284.378723,155.059982 284.128357,144.164810 284.110748,133.269135 
	C284.108215,131.707382 285.044769,130.144135 285.796997,128.293549 
	C287.035400,130.678543 288.023590,133.351593 289.059814,136.373322 
z"/>
<path fill="#EACF8C" opacity="1.000000" stroke="none" 
	d="
M165.082916,250.343750 
	C165.998230,247.898621 167.164078,245.718582 168.239365,243.707825 
	C166.102997,242.085327 164.628906,240.965805 163.166077,239.074097 
	C162.370453,233.879517 161.563583,229.457092 160.756699,225.034668 
	C161.225830,224.946960 161.694962,224.859238 162.164093,224.771515 
	C165.549988,229.811478 168.935867,234.851440 172.074585,240.105469 
	C172.141953,244.217422 175.092407,247.744080 173.491455,251.953033 
	C173.429688,252.115402 174.462891,252.694275 174.985870,253.079071 
	C171.768387,252.255661 168.550903,251.432236 165.082916,250.343750 
z"/>
<path fill="#DBBF81" opacity="1.000000" stroke="none" 
	d="
M129.032043,130.975037 
	C129.010391,125.025902 128.723206,119.085403 129.094849,113.186417 
	C129.367950,108.851219 130.503647,104.570358 131.616653,100.136391 
	C132.997971,101.345383 134.017578,102.683266 135.032959,104.780624 
	C134.998306,115.415901 134.967896,125.291702 134.937469,135.167496 
	C134.047440,134.673218 133.157410,134.178955 131.931381,133.201294 
	C131.249146,132.580811 130.902924,132.443726 130.556686,132.306641 
	C130.556686,132.306641 130.751785,132.310669 130.652756,132.111389 
	C130.067978,131.594849 129.582245,131.277588 129.096497,130.960342 
	C129.096497,130.960342 129.049011,131.001495 129.032043,130.975037 
z"/>
<path fill="#EFD692" opacity="1.000000" stroke="none" 
	d="
M307.403259,86.979370 
	C307.360046,86.667076 307.464691,86.416565 308.098816,85.975449 
	C308.728333,85.490135 308.883362,85.206444 308.945465,84.871964 
	C312.066315,80.266891 315.187134,75.661804 318.652039,71.221832 
	C319.976929,73.188034 320.957764,74.989136 321.938599,76.790237 
	C317.199310,83.502975 312.460022,90.215729 307.377991,96.635551 
	C306.237061,94.526337 305.438934,92.710052 304.640778,90.893753 
	C305.189484,90.004173 305.738190,89.114586 306.776672,88.091354 
	C307.529144,87.817871 307.791809,87.678047 308.054504,87.538223 
	C307.837433,87.351936 307.620331,87.165649 307.403259,86.979370 
z"/>
<path fill="#DBBF81" opacity="1.000000" stroke="none" 
	d="
M130.434250,181.125931 
	C130.389297,179.142853 130.680664,176.954636 130.996597,174.416260 
	C137.928879,171.980911 143.026703,173.905075 143.597992,179.138733 
	C143.953827,182.398575 143.922821,186.330338 139.529495,186.919174 
	C135.116272,187.510696 134.670319,184.029297 134.782913,179.862900 
	C133.222519,180.274307 131.996536,180.597549 130.434250,181.125931 
z"/>
<path fill="#E1C688" opacity="1.000000" stroke="none" 
	d="
M135.035950,135.392792 
	C134.967896,125.291702 134.998306,115.415901 135.072021,105.096924 
	C136.689148,106.160728 138.262985,107.667717 139.953781,109.475693 
	C139.714218,116.297997 139.530975,122.836166 138.899368,129.330719 
	C138.700546,131.375153 137.298920,133.302597 136.238922,135.579590 
	C136.030029,135.875595 135.538803,135.897812 135.538803,135.897812 
	C135.538803,135.897812 135.134399,135.618073 135.035950,135.392792 
z"/>
<path fill="#DBBF81" opacity="1.000000" stroke="none" 
	d="
M190.954361,255.228348 
	C187.938538,255.047470 184.922699,254.866592 181.471619,254.362076 
	C181.036346,254.038452 180.945160,253.720047 180.963669,253.359375 
	C180.634109,250.620743 180.286041,248.242798 179.964905,245.632416 
	C179.991852,245.399979 180.224594,244.994324 180.414398,244.705231 
	C180.338989,240.508865 180.073776,236.601593 179.799332,232.558350 
	C180.556000,232.919556 181.681900,233.456985 182.807785,233.994415 
	C182.807785,233.994431 183.091446,234.392746 183.134094,234.809326 
	C183.276794,235.455597 183.388382,235.679520 183.511536,235.897659 
	C184.422424,239.229874 185.263199,242.583618 186.277603,245.884018 
	C186.702759,247.267227 187.495880,248.537338 188.785339,249.895691 
	C190.297882,249.731827 191.146820,249.531158 191.995758,249.330475 
	C192.739441,249.276352 193.483124,249.222214 194.564301,249.567245 
	C193.585983,251.720383 192.270172,253.474365 190.954361,255.228348 
z"/>
<path fill="#B98F53" opacity="1.000000" stroke="none" 
	d="
M236.594330,45.102489 
	C232.295166,46.094234 230.943878,49.086712 230.891403,53.444592 
	C230.863129,55.793064 229.714462,58.128048 228.993591,60.863777 
	C225.734848,59.023636 222.553833,56.788834 219.428528,54.010887 
	C221.005432,50.605198 222.526611,47.742649 224.047806,44.880104 
	C227.691025,44.915668 231.334229,44.951233 235.433960,44.951508 
	C235.890488,44.916222 236.356873,45.051723 236.594330,45.102489 
M229.215530,49.520458 
	C229.080246,49.526783 228.944962,49.533112 228.809677,49.539440 
	C228.899841,49.582695 228.989990,49.625946 229.215530,49.520458 
z"/>
<path fill="#DBBF81" opacity="1.000000" stroke="none" 
	d="
M186.733185,132.948273 
	C190.043747,140.996460 190.097794,148.913666 187.041473,157.025040 
	C185.102005,156.713104 183.559830,156.256393 182.084137,155.244614 
	C182.762375,147.141876 183.374146,139.594223 183.985931,132.046555 
	C184.810623,132.285355 185.635330,132.524170 186.733185,132.948273 
z"/>
<path fill="#EFD692" opacity="1.000000" stroke="none" 
	d="
M170.716507,126.934845 
	C170.755554,134.869186 170.515152,142.616684 170.105133,150.756744 
	C168.410843,150.701767 166.886139,150.254242 165.127106,149.559479 
	C164.929306,144.645920 164.728378,139.961212 165.087509,135.319839 
	C165.319519,132.321594 166.371887,129.386810 167.188354,126.024841 
	C168.359070,126.000069 169.398071,126.374039 170.716507,126.934845 
z"/>
<path fill="#E4C684" opacity="1.000000" stroke="none" 
	d="
M183.716476,131.817566 
	C183.374146,139.594223 182.762375,147.141876 181.828613,155.003204 
	C179.794983,154.826141 178.083374,154.335434 176.121307,153.617249 
	C176.580902,145.888046 177.290939,138.386322 178.001801,130.412262 
	C179.817429,130.489487 181.632217,131.039032 183.716476,131.817566 
z"/>
<path fill="#A17036" opacity="1.000000" stroke="none" 
	d="
M246.198151,80.283577 
	C249.041016,77.259079 250.999893,74.669495 248.589722,70.195808 
	C247.563507,68.290962 248.828934,65.151497 249.084961,62.141624 
	C251.108749,70.528214 253.092499,79.348106 255.097015,88.163277 
	C255.731384,90.953056 256.421234,93.730225 256.048645,96.989227 
	C252.799210,91.528854 249.549759,86.068474 246.198151,80.283577 
z"/>
<path fill="#EFD692" opacity="1.000000" stroke="none" 
	d="
M305.881470,208.678131 
	C305.875732,198.161392 305.831024,187.948944 306.107788,177.745209 
	C306.172943,175.342209 307.322083,172.968613 308.071655,170.185028 
	C309.385498,171.644089 310.600281,173.499603 311.864471,175.690796 
	C308.550934,176.034332 309.019684,178.510895 309.013092,180.609207 
	C308.988098,188.539047 309.062622,196.469788 308.961517,204.398422 
	C308.934631,206.504761 308.413544,208.604782 307.934692,211.126129 
	C307.153351,210.691589 306.556610,209.838577 305.881470,208.678131 
z"/>
<path fill="#B4884B" opacity="1.000000" stroke="none" 
	d="
M235.641891,224.158463 
	C236.495300,227.764496 237.077820,231.588104 237.670624,235.410110 
	C237.898880,236.881775 238.150528,238.349838 238.749802,239.928436 
	C237.344849,241.360123 235.581604,242.682907 233.074188,243.993057 
	C231.557571,242.799774 230.342239,241.699036 230.111618,240.420654 
	C229.719116,238.244858 229.945938,235.957321 229.912537,233.716736 
	C231.733383,230.602966 233.554230,227.489182 235.641891,224.158463 
z"/>
<path fill="#E1C688" opacity="1.000000" stroke="none" 
	d="
M182.760956,233.647858 
	C181.681900,233.456985 180.556000,232.919556 179.799332,232.558350 
	C180.073776,236.601593 180.338989,240.508865 180.342926,244.302078 
	C179.435303,234.992920 173.110458,228.949890 167.919418,222.277481 
	C168.565521,220.893295 169.211624,219.509125 170.214752,217.942169 
	C174.619232,222.940018 178.666672,228.120667 182.760956,233.647858 
z"/>
<path fill="#E1C688" opacity="1.000000" stroke="none" 
	d="
M134.760880,236.187622 
	C133.292221,234.968613 131.412415,233.837158 131.153656,232.411469 
	C130.474686,228.670868 129.436646,224.426971 134.751526,222.250793 
	C137.331253,224.758331 139.671860,227.499725 141.886383,230.795563 
	C142.332504,231.603729 142.904709,231.857437 143.476913,232.111145 
	C143.476913,232.111160 143.817352,232.178680 143.632477,232.658905 
	C142.610779,234.139709 141.773956,235.140274 140.937119,236.140839 
	C138.987473,233.772415 137.037964,234.332245 134.760880,236.187622 
z"/>
<path fill="#B98F53" opacity="1.000000" stroke="none" 
	d="
M229.627472,233.907776 
	C229.945938,235.957321 229.719116,238.244858 230.111618,240.420654 
	C230.342239,241.699036 231.557571,242.799774 232.739044,244.024139 
	C230.099548,245.741974 227.051025,247.416077 223.319519,248.939392 
	C221.358261,246.832565 220.079971,244.876511 218.801666,242.920456 
	C222.315247,239.979919 225.828827,237.039383 229.627472,233.907776 
z"/>
<path fill="#AD8C5B" opacity="1.000000" stroke="none" 
	d="
M278.624268,127.945885 
	C279.220520,137.804626 279.573029,147.858582 279.833954,157.914932 
	C279.862885,159.031036 279.369537,160.160690 279.044586,161.675400 
	C277.662292,159.971680 276.353821,157.876617 275.145630,155.100922 
	C275.492340,149.738098 275.879578,145.057312 275.927063,140.373062 
	C275.951599,137.955307 275.372437,135.531448 275.066010,133.110336 
	C276.161865,131.454163 277.257721,129.797989 278.624268,127.945885 
z"/>
<path fill="#C8A063" opacity="1.000000" stroke="none" 
	d="
M341.328857,252.746231 
	C337.418060,244.482178 338.919128,236.330353 341.199982,227.743286 
	C341.900269,228.201813 342.481293,229.098328 343.076111,230.768204 
	C343.814880,238.581741 344.539856,245.621948 345.264832,252.662140 
	C344.069244,252.720612 342.873627,252.779083 341.328857,252.746231 
z"/>
<path fill="#C0975B" opacity="1.000000" stroke="none" 
	d="
M223.676575,44.815876 
	C222.526611,47.742649 221.005432,50.605198 219.245331,53.731041 
	C217.487137,53.128075 215.967865,52.261810 214.028198,50.968929 
	C213.279007,50.390705 212.950211,50.239101 212.621414,50.087498 
	C212.621414,50.087498 212.255646,50.113548 212.143219,49.607552 
	C212.323517,46.076782 212.616241,43.052010 212.908966,40.027233 
	C216.374420,41.602039 219.839874,43.176846 223.676575,44.815876 
z"/>
<path fill="#E1C688" opacity="1.000000" stroke="none" 
	d="
M141.691254,41.310959 
	C143.846405,42.749855 145.665253,44.225021 147.774384,45.871353 
	C144.195740,49.232193 140.326813,52.421860 136.168274,55.784748 
	C132.340042,52.115643 135.709793,48.584351 136.240265,44.669426 
	C137.855286,43.387440 139.605118,42.367332 141.691254,41.310959 
z"/>
<path fill="#947144" opacity="1.000000" stroke="none" 
	d="
M270.988159,149.938965 
	C268.725525,153.090271 266.462860,156.241577 263.730835,159.556137 
	C262.365082,159.608871 261.468750,159.498352 261.242767,159.470490 
	C260.992462,157.361237 260.783569,155.601105 260.574707,153.841003 
	C263.152863,149.990417 265.730988,146.139832 268.885193,142.290009 
	C269.970215,144.840164 270.479187,147.389557 270.988159,149.938965 
z"/>
<path fill="#E1C688" opacity="1.000000" stroke="none" 
	d="
M322.236694,76.646286 
	C320.957764,74.989136 319.976929,73.188034 318.936005,71.024391 
	C321.689178,66.477684 324.502441,62.293514 327.641693,58.378807 
	C328.502899,60.773136 329.038116,62.898003 329.573334,65.022873 
	C329.511841,65.268768 329.432587,65.508804 328.928070,65.916664 
	C327.985992,66.524727 327.451477,66.959099 326.916931,67.393478 
	C327.304596,67.603043 327.692230,67.812607 328.079895,68.022171 
	C326.231537,70.848885 324.383148,73.675613 322.236694,76.646286 
z"/>
<path fill="#947144" opacity="1.000000" stroke="none" 
	d="
M66.397690,184.915985 
	C65.763039,183.107681 65.539413,181.280609 65.172127,179.256912 
	C68.700615,178.797729 72.372749,178.535172 76.406265,178.695587 
	C79.206093,180.282455 81.991814,181.190063 81.015556,184.874176 
	C76.279945,184.881851 71.544327,184.889542 66.397690,184.915985 
z"/>
<path fill="#D0B378" opacity="1.000000" stroke="none" 
	d="
M331.004639,53.011703 
	C334.262268,45.874748 328.660400,43.514481 323.518799,40.906044 
	C323.753784,40.459366 323.988770,40.012684 324.223724,39.566006 
	C327.853577,39.566006 331.483398,39.566006 335.558838,40.167126 
	C336.002563,43.214203 336.253632,45.695236 335.920868,48.095314 
	C335.641144,50.112911 334.681641,52.036255 333.690674,53.991692 
	C332.573761,53.658607 331.789185,53.335155 331.004639,53.011703 
z"/>
<path fill="#9F7D50" opacity="1.000000" stroke="none" 
	d="
M271.290100,150.079224 
	C270.479187,147.389557 269.970215,144.840164 269.172241,142.121536 
	C270.768738,139.138657 272.654297,136.324997 274.802917,133.310852 
	C275.372437,135.531448 275.951599,137.955307 275.927063,140.373062 
	C275.879578,145.057312 275.492340,149.738098 275.085052,154.764374 
	C273.813477,153.478775 272.702759,151.849121 271.290100,150.079224 
z"/>
<path fill="#D0B378" opacity="1.000000" stroke="none" 
	d="
M187.998901,34.078533 
	C191.931137,34.798046 195.863358,35.517559 199.614532,36.690701 
	C195.948273,39.913193 199.569260,42.163261 199.981247,44.647610 
	C195.825241,43.641575 191.669250,42.635540 187.309540,41.066833 
	C188.070496,39.227837 189.035126,37.951504 190.078506,36.570999 
	C189.410507,35.770378 188.704697,34.924458 187.998901,34.078533 
z"/>
<path fill="#C0975B" opacity="1.000000" stroke="none" 
	d="
M342.040344,39.815262 
	C344.693146,39.724617 347.345947,39.633972 350.619598,39.841103 
	C352.827148,41.092075 354.413849,42.045280 356.000549,42.998482 
	C351.557861,45.298103 347.115143,47.597740 342.330688,49.432564 
	C342.006042,45.916920 342.023193,42.866089 342.040344,39.815262 
z"/>
<path fill="#C9AC76" opacity="1.000000" stroke="none" 
	d="
M122.999268,210.001251 
	C122.981873,213.920135 122.964470,217.839005 122.417786,222.160767 
	C119.607758,222.264328 117.327026,221.964996 114.931999,221.465393 
	C114.592003,221.048035 114.332458,220.884720 114.033852,220.440155 
	C114.711441,219.054092 115.394279,218.002991 116.077118,216.951889 
	C117.539375,216.951889 119.001633,216.951889 120.985481,216.951889 
	C119.022453,214.694061 117.349663,212.770035 115.864944,210.457779 
	C118.350334,208.205200 120.666382,208.246201 122.999268,210.001251 
z"/>
<path fill="#DBBF81" opacity="1.000000" stroke="none" 
	d="
M187.603485,33.987877 
	C188.704697,34.924458 189.410507,35.770378 190.078506,36.570999 
	C189.035126,37.951504 188.070496,39.227837 187.030167,40.820526 
	C183.485077,40.736042 180.015686,40.335194 176.257050,39.392822 
	C176.295090,37.182461 176.622375,35.513626 176.949661,33.844795 
	C180.369125,33.862270 183.788605,33.879745 187.603485,33.987877 
z"/>
<path fill="#C9AC76" opacity="1.000000" stroke="none" 
	d="
M299.837219,107.981483 
	C297.480408,111.571655 295.123627,115.161827 292.086243,118.831810 
	C290.548584,117.135124 289.691528,115.358627 288.834473,113.582138 
	C290.765350,110.652405 292.696259,107.722664 295.061218,104.839325 
	C296.942596,105.917648 298.389893,106.949570 299.837219,107.981483 
z"/>
<path fill="#CFAE6F" opacity="1.000000" stroke="none" 
	d="
M341.617645,39.709854 
	C342.023193,42.866089 342.006042,45.916920 341.981567,49.417328 
	C340.121307,52.097923 338.268372,54.328945 335.840210,56.774021 
	C334.850616,56.991344 334.436310,56.994614 334.018860,56.623295 
	C334.018219,55.499584 334.020660,54.750458 334.023071,54.001328 
	C334.681641,52.036255 335.641144,50.112911 335.920868,48.095314 
	C336.253632,45.695236 336.002563,43.214203 336.006134,40.291714 
	C337.736847,39.744938 339.465912,39.674698 341.617645,39.709854 
z"/>
<path fill="#BF9E68" opacity="1.000000" stroke="none" 
	d="
M117.003494,242.008438 
	C112.931427,242.060623 108.859367,242.112808 104.230133,241.708923 
	C103.143074,239.321747 102.613182,237.390640 102.537102,235.538895 
	C106.998337,235.781326 111.005760,235.944412 115.011658,236.504181 
	C115.674583,238.603394 116.339043,240.305908 117.003494,242.008438 
z"/>
<path fill="#C8A063" opacity="1.000000" stroke="none" 
	d="
M205.863068,247.640808 
	C207.108780,247.316986 208.354492,246.993149 210.316254,246.835083 
	C212.523285,248.268372 214.114349,249.523239 211.205322,251.026581 
	C211.155869,251.052124 211.698761,252.223923 211.965240,252.860809 
	C208.583130,253.551056 205.201019,254.241302 201.404663,254.502472 
	C199.994980,252.403534 198.999557,250.733643 198.004120,249.063751 
	C200.023239,248.691238 202.042358,248.318710 204.634293,247.939056 
	C205.454483,247.899582 205.673126,247.802536 205.863068,247.640808 
z"/>
<path fill="#AD8C5B" opacity="1.000000" stroke="none" 
	d="
M100.958366,196.124191 
	C97.494469,193.817505 94.030571,191.510834 90.276337,188.666992 
	C90.006752,186.370316 90.027512,184.610840 90.048264,182.851349 
	C93.958160,185.274750 97.868057,187.698151 101.775650,190.674896 
	C101.501686,192.860229 101.230026,194.492203 100.958366,196.124191 
z"/>
<path fill="#C8A063" opacity="1.000000" stroke="none" 
	d="
M212.647720,39.792927 
	C212.616241,43.052010 212.323517,46.076782 212.013184,49.478287 
	C209.492661,48.741497 206.989746,47.627983 204.389069,45.930382 
	C204.199020,42.592888 204.106735,39.839478 204.014465,37.086071 
	C206.805130,37.910255 209.595795,38.734436 212.647720,39.792927 
z"/>
<path fill="#BF9E68" opacity="1.000000" stroke="none" 
	d="
M123.011658,209.669724 
	C120.666382,208.246201 118.350334,208.205200 115.692780,210.150406 
	C112.553627,207.404083 109.774712,204.576874 107.190399,201.282104 
	C108.298027,199.722794 109.211060,198.631058 110.124084,197.539337 
	C113.509445,200.676956 116.894798,203.814575 120.625275,206.974213 
	C121.460770,207.305649 121.951141,207.615067 122.737091,207.968094 
	C123.029800,208.453873 123.026917,208.896042 123.011658,209.669724 
z"/>
<path fill="#AD8C5B" opacity="1.000000" stroke="none" 
	d="
M102.083290,235.459549 
	C102.613182,237.390640 103.143074,239.321747 103.830231,241.588043 
	C98.640633,240.180069 93.293755,238.436920 87.693695,236.421051 
	C89.860970,235.458649 92.281433,234.768982 95.263557,233.869217 
	C97.911240,234.259262 99.997269,234.859406 102.083290,235.459549 
z"/>
<path fill="#E1C688" opacity="1.000000" stroke="none" 
	d="
M179.937973,245.864853 
	C180.286041,248.242798 180.634109,250.620743 180.625122,253.405334 
	C179.820099,253.886475 179.372116,253.960983 178.924149,254.035492 
	C177.778244,253.880096 176.632355,253.724701 175.236160,253.324188 
	C174.462891,252.694275 173.429688,252.115402 173.491455,251.953033 
	C175.092407,247.744080 172.141953,244.217422 172.363083,240.238998 
	C174.598022,241.775864 176.297318,243.393280 177.997803,245.257980 
	C177.998993,245.505280 177.999863,245.999863 177.911575,246.043793 
	C177.823288,246.087723 177.807327,246.317413 177.807327,246.317413 
	C177.807327,246.317413 178.000137,246.000137 178.282776,245.995529 
	C178.753281,245.975784 178.941147,245.960648 179.332321,245.936188 
	C179.535645,245.926865 179.937973,245.864853 179.937973,245.864853 
z"/>
<path fill="#C0975B" opacity="1.000000" stroke="none" 
	d="
M345.620972,252.747559 
	C344.539856,245.621948 343.814880,238.581741 343.118713,231.091339 
	C345.389343,233.859833 347.631134,237.078522 349.719025,240.874329 
	C349.096252,245.193375 348.627380,248.935303 348.158508,252.677216 
	C347.431396,252.729141 346.704254,252.781067 345.620972,252.747559 
z"/>
<path fill="#BB955C" opacity="1.000000" stroke="none" 
	d="
M212.350266,252.875458 
	C211.698761,252.223923 211.155869,251.052124 211.205322,251.026581 
	C214.114349,249.523239 212.523285,248.268372 210.702301,246.796631 
	C212.963150,245.451447 215.553986,244.310486 218.473236,243.044983 
	C220.079971,244.876511 221.358261,246.832565 222.963760,248.960419 
	C219.772400,250.384827 216.253845,251.637451 212.350266,252.875458 
z"/>
<path fill="#B98F53" opacity="1.000000" stroke="none" 
	d="
M348.504486,252.763916 
	C348.627380,248.935303 349.096252,245.193375 349.862549,241.193680 
	C351.656677,242.111252 353.153381,243.286591 354.725342,245.028824 
	C355.284424,247.949234 355.768188,250.302780 356.251953,252.656311 
	C353.784790,252.721069 351.317596,252.785843 348.504486,252.763916 
z"/>
<path fill="#B49461" opacity="1.000000" stroke="none" 
	d="
M115.815811,216.626251 
	C115.394279,218.002991 114.711441,219.054092 113.994400,220.607010 
	C113.960182,221.108841 113.922523,221.447037 113.489594,221.506683 
	C110.710739,221.588074 108.364815,221.609848 106.018890,221.631607 
	C104.446899,220.314957 102.874908,218.998322 101.174675,217.380859 
	C101.046440,217.080017 101.065796,217.025620 101.290863,217.075470 
	C101.918381,217.055176 102.320831,216.985016 102.723282,216.914871 
	C103.538322,216.698868 104.353371,216.482880 105.703552,216.353333 
	C106.238693,216.439758 106.662994,216.445068 106.662994,216.445068 
	C106.662994,216.445068 106.992165,216.168457 106.992165,216.168457 
	C109.846275,216.212509 112.700386,216.256561 115.815811,216.626251 
z"/>
<path fill="#876138" opacity="1.000000" stroke="none" 
	d="
M260.312531,154.027328 
	C260.783569,155.601105 260.992462,157.361237 261.242767,159.470490 
	C261.468750,159.498352 262.365082,159.608871 263.510925,159.814880 
	C261.969208,162.564667 260.177948,165.218994 258.330261,167.956955 
	C254.320694,164.676727 253.827484,161.627975 257.134003,158.160660 
	C258.254120,156.986099 259.086487,155.537201 260.312531,154.027328 
z"/>
<path fill="#BF9E68" opacity="1.000000" stroke="none" 
	d="
M288.550201,113.783478 
	C289.691528,115.358627 290.548584,117.135124 291.787994,118.995255 
	C290.308411,121.944260 288.446472,124.809639 286.304626,127.858139 
	C285.126648,126.339615 284.228577,124.637978 282.969147,122.778168 
	C284.493805,119.741608 286.379852,116.863213 288.550201,113.783478 
z"/>
<path fill="#9F7D50" opacity="1.000000" stroke="none" 
	d="
M89.828491,182.569046 
	C90.027512,184.610840 90.006752,186.370316 90.005226,188.451569 
	C87.238815,187.570450 84.453171,186.367569 81.341545,185.019424 
	C81.991814,181.190063 79.206093,180.282455 76.816017,178.868729 
	C81.112503,179.841537 85.360619,181.064148 89.828491,182.569046 
z"/>
<path fill="#B49461" opacity="1.000000" stroke="none" 
	d="
M109.942299,197.282257 
	C109.211060,198.631058 108.298027,199.722794 107.044579,200.975250 
	C104.884361,199.658020 103.064575,198.180054 101.101578,196.413132 
	C101.230026,194.492203 101.501686,192.860229 101.960800,190.945465 
	C104.685677,192.783508 107.223091,194.904327 109.942299,197.282257 
z"/>
<path fill="#E1C688" opacity="1.000000" stroke="none" 
	d="
M304.371033,91.054733 
	C305.438934,92.710052 306.237061,94.526337 307.055420,96.774155 
	C305.828339,99.298035 304.581055,101.390396 302.812897,103.572273 
	C301.422119,103.073959 300.552216,102.486122 300.716339,102.597023 
	C301.208405,99.430923 301.565582,97.132736 301.922760,94.834557 
	C302.648926,93.628273 303.375092,92.421989 304.371033,91.054733 
z"/>
<path fill="#CFAE6F" opacity="1.000000" stroke="none" 
	d="
M203.637848,36.971088 
	C204.106735,39.839478 204.199020,42.592888 204.134430,45.705162 
	C202.855042,45.711971 201.732529,45.359917 200.295639,44.827736 
	C199.569260,42.163261 195.948273,39.913193 199.776123,37.033737 
	C201.166275,36.900803 202.213745,36.878456 203.637848,36.971088 
z"/>
<path fill="#C9AC76" opacity="1.000000" stroke="none" 
	d="
M197.622406,248.992111 
	C198.999557,250.733643 199.994980,252.403534 200.987976,254.449402 
	C197.872986,255.059204 194.760391,255.292999 191.301086,255.377563 
	C192.270172,253.474365 193.585983,251.720383 194.936111,249.611618 
	C195.727188,249.144714 196.483948,249.032593 197.622406,248.992111 
z"/>
<path fill="#DBBF81" opacity="1.000000" stroke="none" 
	d="
M301.654053,95.040924 
	C301.565582,97.132736 301.208405,99.430923 300.716339,102.597023 
	C300.552216,102.486122 301.422119,103.073959 302.562988,103.794968 
	C301.937012,105.088104 301.040070,106.248077 299.990173,107.694771 
	C298.389893,106.949570 296.942596,105.917648 295.307648,104.639717 
	C297.208435,101.344902 299.296875,98.296104 301.654053,95.040924 
z"/>
<path fill="#D9BA79" opacity="1.000000" stroke="none" 
	d="
M333.690704,53.991695 
	C334.020660,54.750458 334.018219,55.499584 333.720825,56.809029 
	C332.949341,58.873795 332.472748,60.378250 331.996155,61.882702 
	C331.357880,62.777466 330.719574,63.672226 329.827332,64.794930 
	C329.038116,62.898003 328.502899,60.773136 327.950287,58.228584 
	C328.783020,56.333965 329.633118,54.859024 330.743958,53.197891 
	C331.789185,53.335155 332.573761,53.658607 333.690704,53.991695 
z"/>
<path fill="#AF8145" opacity="1.000000" stroke="none" 
	d="
M356.585938,252.742752 
	C355.768188,250.302780 355.284424,247.949234 354.913513,245.286423 
	C356.855591,245.823807 358.684814,246.670456 360.943207,248.061218 
	C362.016113,249.968307 362.659821,251.331284 363.303528,252.694244 
	C361.175659,252.739227 359.047821,252.784210 356.585938,252.742752 
M358.534454,250.504959 
	C358.534454,250.504959 358.484192,250.525696 358.534454,250.504959 
z"/>
<path fill="#C9AC76" opacity="1.000000" stroke="none" 
	d="
M117.407974,242.042511 
	C116.339043,240.305908 115.674583,238.603394 115.407196,236.380707 
	C117.177963,235.898010 118.551666,235.935455 119.925385,235.972900 
	C121.221146,237.383286 122.516907,238.793655 123.910324,240.501068 
	C121.942795,241.224258 119.877617,241.650421 117.407974,242.042511 
z"/>
<path fill="#B49461" opacity="1.000000" stroke="none" 
	d="
M110.365425,81.225784 
	C110.816391,82.324745 111.408478,83.783295 111.359299,85.219902 
	C111.221016,89.259354 110.818718,93.289780 110.283714,97.657532 
	C110.102539,92.519318 110.158173,87.047340 110.365425,81.225784 
z"/>
<path fill="#876138" opacity="1.000000" stroke="none" 
	d="
M356.374512,43.014843 
	C354.413849,42.045280 352.827148,41.092075 351.023132,39.896233 
	C354.584351,39.653599 358.362915,39.653599 362.141449,39.653599 
	C362.217773,40.133545 362.294098,40.613491 362.370422,41.093437 
	C360.496429,41.739357 358.622437,42.385277 356.374512,43.014843 
z"/>
<path fill="#EACF8C" opacity="1.000000" stroke="none" 
	d="
M141.065155,236.449249 
	C141.773956,235.140274 142.610779,234.139709 143.686478,232.823822 
	C144.598999,233.099777 145.272659,233.691055 146.014099,234.547119 
	C147.042282,237.000458 148.002670,239.188980 148.966583,241.729599 
	C146.377792,240.307022 143.785492,238.532349 141.065155,236.449249 
z"/>
<path fill="#EACF8C" opacity="1.000000" stroke="none" 
	d="
M176.508804,33.733429 
	C176.622375,35.513626 176.295090,37.182461 175.896454,39.276157 
	C175.310059,39.751492 174.794983,39.801956 173.731186,39.645615 
	C172.788162,39.587181 172.393875,39.735565 171.999588,39.883949 
	C171.829605,39.932934 171.659622,39.981922 171.235168,39.955055 
	C170.872818,38.529503 170.764923,37.179806 170.823059,35.390320 
	C170.989090,34.950539 170.959595,34.599674 170.959595,34.599678 
	C172.662384,34.273804 174.365158,33.947933 176.508804,33.733429 
z"/>
<path fill="#947144" opacity="1.000000" stroke="none" 
	d="
M363.639832,252.776855 
	C362.659821,251.331284 362.016113,249.968307 361.193970,248.279327 
	C364.151855,249.016907 367.288208,250.080505 370.424530,251.144119 
	C370.321136,251.715897 370.217743,252.287689 370.114380,252.859467 
	C368.068298,252.859467 366.022217,252.859467 363.639832,252.776855 
z"/>
<path fill="#D0B378" opacity="1.000000" stroke="none" 
	d="
M123.226624,59.768806 
	C122.457146,59.433098 121.914665,58.866222 121.134186,58.124626 
	C121.679573,57.003510 122.462944,56.057125 123.559647,55.027794 
	C123.733185,56.475784 123.593399,58.006718 123.226624,59.768806 
z"/>
<path fill="#D0B378" opacity="1.000000" stroke="none" 
	d="
M332.319489,61.843208 
	C332.472748,60.378250 332.949341,58.873795 333.723938,57.183609 
	C334.436310,56.994614 334.850616,56.991344 335.575745,56.978851 
	C334.805298,58.580994 333.724060,60.192356 332.319489,61.843208 
z"/>
<path fill="#C0975B" opacity="1.000000" stroke="none" 
	d="
M216.040649,144.268326 
	C214.853897,145.092163 212.894058,147.859787 212.887207,143.289688 
	C213.949615,143.351318 214.888931,143.701828 216.040649,144.268326 
z"/>
<path fill="#B49461" opacity="1.000000" stroke="none" 
	d="
M110.377983,102.304123 
	C110.979355,103.672852 111.530762,105.392593 112.068443,107.493591 
	C111.479149,106.134949 110.903580,104.395050 110.377983,102.304123 
z"/>
<path fill="#DBBF81" opacity="1.000000" stroke="none" 
	d="
M170.743652,34.652626 
	C170.959595,34.599674 170.989090,34.950539 170.958847,35.125828 
	C170.219070,35.259991 169.509521,35.218868 168.451874,35.108597 
	C168.911728,34.928162 169.719727,34.816872 170.743652,34.652626 
z"/>
<path fill="#D9BA79" opacity="1.000000" stroke="none" 
	d="
M328.356995,67.881104 
	C327.692230,67.812607 327.304596,67.603043 326.916931,67.393478 
	C327.451477,66.959099 327.985992,66.524727 328.809570,66.064758 
	C328.943756,66.606110 328.788940,67.173073 328.356995,67.881104 
z"/>
<path fill="#C6A76F" opacity="1.000000" stroke="none" 
	d="
M116.521423,64.079124 
	C116.643623,64.557549 116.529343,65.204712 116.126450,65.875870 
	C115.986885,65.349197 116.135910,64.798531 116.521423,64.079124 
z"/>
<path fill="#EACF8C" opacity="1.000000" stroke="none" 
	d="
M143.341858,231.923187 
	C142.904709,231.857437 142.332504,231.603729 141.953293,231.139618 
	C142.499786,231.197906 142.853287,231.466583 143.341858,231.923187 
z"/>
<path fill="#C8A063" opacity="1.000000" stroke="none" 
	d="
M191.651398,249.194122 
	C191.146820,249.531158 190.297882,249.731827 189.111832,249.907227 
	C189.618820,249.607224 190.462921,249.332489 191.651398,249.194122 
z"/>
<path fill="#E1C688" opacity="1.000000" stroke="none" 
	d="
M129.205841,131.226959 
	C129.582245,131.277588 130.067978,131.594849 130.630829,132.206467 
	C130.243668,132.165070 129.779434,131.829330 129.205841,131.226959 
z"/>
<path fill="#AF8145" opacity="1.000000" stroke="none" 
	d="
M248.200485,230.721130 
	C248.243668,230.371353 248.531143,229.858566 249.086319,229.205719 
	C249.050949,229.563141 248.747849,230.060638 248.200485,230.721130 
z"/>
<path fill="#E1C688" opacity="1.000000" stroke="none" 
	d="
M144.663025,39.927425 
	C144.483276,40.275200 143.987976,40.603245 143.185242,40.940041 
	C143.367706,40.601757 143.857605,40.254726 144.663025,39.927425 
z"/>
<path fill="#E1C688" opacity="1.000000" stroke="none" 
	d="
M307.193054,87.175995 
	C307.620331,87.165649 307.837433,87.351936 308.054504,87.538223 
	C307.791809,87.678047 307.529144,87.817871 307.054504,87.944321 
	C306.889313,87.744835 306.936066,87.558723 307.193054,87.175995 
z"/>
<path fill="#9F7D50" opacity="1.000000" stroke="none" 
	d="
M102.521820,216.828583 
	C102.320831,216.985016 101.918381,217.055176 101.311111,217.096039 
	C101.510986,216.958572 101.915680,216.850418 102.521820,216.828583 
z"/>
<path fill="#C9AC76" opacity="1.000000" stroke="none" 
	d="
M179.171509,254.175262 
	C179.372116,253.960983 179.820099,253.886475 180.606613,253.766006 
	C180.945160,253.720047 181.036346,254.038452 181.045792,254.203781 
	C180.509781,254.351074 179.964310,254.333054 179.171509,254.175262 
z"/>
<path fill="#DBBF81" opacity="1.000000" stroke="none" 
	d="
M131.051895,97.728989 
	C130.718811,97.856766 130.569901,97.629578 130.691910,97.173317 
	C130.864243,97.187874 130.955307,97.331139 131.051895,97.728989 
z"/>
<path fill="#BF9E68" opacity="1.000000" stroke="none" 
	d="
M282.559906,122.761971 
	C282.646545,122.988182 282.441162,123.310753 281.987549,123.786072 
	C281.915558,123.578651 282.091736,123.218483 282.559906,122.761971 
z"/>
<path fill="#BB955C" opacity="1.000000" stroke="none" 
	d="
M205.677826,247.569550 
	C205.673126,247.802536 205.454483,247.899582 205.025543,247.928482 
	C204.996628,247.686127 205.212845,247.543884 205.677826,247.569550 
z"/>
<path fill="#E1C688" opacity="1.000000" stroke="none" 
	d="
M308.702087,84.974716 
	C308.883362,85.206444 308.728333,85.490135 308.280762,85.866058 
	C308.207001,85.698540 308.332855,85.388008 308.702087,84.974716 
z"/>
<path fill="#BF9E68" opacity="1.000000" stroke="none" 
	d="
M281.649963,123.851761 
	C281.731201,124.053055 281.541077,124.354759 281.138458,124.819992 
	C281.076843,124.639732 281.227692,124.295959 281.649963,123.851761 
z"/>
<path fill="#EFD692" opacity="1.000000" stroke="none" 
	d="
M167.192673,125.451111 
	C167.028320,125.597702 166.705475,125.534225 166.197723,125.300400 
	C166.353287,125.167038 166.693726,125.204041 167.192673,125.451111 
z"/>
<path fill="#E1C688" opacity="1.000000" stroke="none" 
	d="
M183.511200,235.697296 
	C183.388382,235.679520 183.276794,235.455597 183.105621,235.052155 
	C183.289337,235.010605 183.448135,235.216782 183.511200,235.697296 
z"/>
<path fill="#E1C688" opacity="1.000000" stroke="none" 
	d="
M130.709946,132.555634 
	C130.902924,132.443726 131.249146,132.580811 131.777130,132.933167 
	C131.593658,133.033844 131.228439,132.919235 130.709946,132.555634 
z"/>
<path fill="#CFAE6F" opacity="1.000000" stroke="none" 
	d="
M196.195969,136.334412 
	C196.054138,136.490112 195.722672,136.475739 195.198944,136.292221 
	C195.339905,136.136826 195.673111,136.150589 196.195969,136.334412 
z"/>
<path fill="#C8A063" opacity="1.000000" stroke="none" 
	d="
M212.786667,50.320557 
	C212.950211,50.239101 213.279007,50.390705 213.810181,50.724197 
	C213.658997,50.788593 213.305466,50.671104 212.786667,50.320557 
z"/>
<path fill="#E1C688" opacity="1.000000" stroke="none" 
	d="
M303.067444,160.627167 
	C302.868073,160.627884 302.586884,160.302567 302.182007,159.673340 
	C302.367462,159.680008 302.676544,159.990585 303.067444,160.627167 
z"/>
<path fill="#EFD692" opacity="1.000000" stroke="none" 
	d="
M308.188629,169.639435 
	C307.864777,169.814102 307.682404,169.623367 307.769653,169.167542 
	C307.848358,169.037140 308.139191,169.408737 308.188629,169.639435 
z"/>
<path fill="#C6A76F" opacity="1.000000" stroke="none" 
	d="
M284.933380,172.323898 
	C285.132843,172.295517 285.392090,172.555038 285.752319,173.076782 
	C285.566589,173.096619 285.279877,172.854202 284.933380,172.323898 
z"/>
<path fill="#DBBF81" opacity="1.000000" stroke="none" 
	d="
M172.309540,39.947010 
	C172.393875,39.735565 172.788162,39.587181 173.494781,39.531620 
	C173.411240,39.752987 173.015366,39.881531 172.309540,39.947010 
z"/>
<path fill="#E1C688" opacity="1.000000" stroke="none" 
	d="
M147.699036,38.898441 
	C147.878540,39.274025 147.648727,39.445210 147.141022,39.306992 
	C147.152863,39.106468 147.295074,39.005287 147.699036,38.898441 
z"/>
<path fill="#C9AC76" opacity="1.000000" stroke="none" 
	d="
M126.933899,205.734650 
	C126.721504,205.704987 126.552353,205.415955 126.409241,204.870544 
	C126.615913,204.901199 126.796532,205.188248 126.933899,205.734650 
z"/>
<path fill="#9F7D50" opacity="1.000000" stroke="none" 
	d="
M106.744156,216.117096 
	C106.992165,216.168457 106.662994,216.445068 106.662994,216.445068 
	C106.662994,216.445068 106.238693,216.439758 106.129944,216.340820 
	C106.179520,216.183182 106.337830,216.124466 106.744156,216.117096 
z"/>
<path fill="#B4884B" opacity="1.000000" stroke="none" 
	d="
M236.925659,221.227707 
	C237.332077,221.279449 237.345566,221.546188 236.916779,221.871185 
	C236.765625,221.937424 236.823837,221.450668 236.925659,221.227707 
z"/>
<path fill="#D0B378" opacity="1.000000" stroke="none" 
	d="
M126.146103,66.986771 
	C126.570839,66.437584 126.996834,66.171600 127.422836,65.905617 
	C127.426552,66.621040 127.430267,67.336464 127.433983,68.051888 
	C127.005112,67.791252 126.576233,67.530617 126.146103,66.986771 
z"/>
<path fill="#AA7A3E" opacity="1.000000" stroke="none" 
	d="
M245.088882,234.070709 
	C244.661789,233.815903 244.177246,233.522293 243.692719,233.228699 
	C243.842957,233.044144 243.993179,232.859604 244.143402,232.675049 
	C244.420990,232.990906 244.698578,233.306778 245.042953,233.884476 
	C245.109741,234.146301 245.031448,234.031906 245.088882,234.070709 
z"/>
<path fill="#0F0C1B" opacity="1.000000" stroke="none" 
	d="
M177.996613,245.010681 
	C176.297318,243.393280 174.598022,241.775864 172.610260,240.024933 
	C168.935867,234.851440 165.549988,229.811478 162.164093,224.771515 
	C161.694962,224.859238 161.225830,224.946960 160.756699,225.034668 
	C161.563583,229.457092 162.370453,233.879517 163.106216,238.726044 
	C155.454575,231.928009 153.620956,223.212143 156.593369,212.158829 
	C160.434677,215.668289 163.874741,218.811188 167.617111,222.115784 
	C173.110458,228.949890 179.435303,234.992920 180.153122,244.591171 
	C180.224594,244.994324 179.991852,245.399979 179.964905,245.632416 
	C179.937973,245.864853 179.535645,245.926865 179.240417,245.681824 
	C178.628998,245.294754 178.312805,245.152725 177.996613,245.010681 
z"/>
<path fill="#0F0C1B" opacity="1.000000" stroke="none" 
	d="
M120.063446,235.681168 
	C118.551666,235.935455 117.177963,235.898010 115.408722,235.984024 
	C111.005760,235.944412 106.998337,235.781326 102.537102,235.538895 
	C99.997269,234.859406 97.911240,234.259262 95.457405,233.581146 
	C92.114746,231.847595 89.139893,230.192017 86.165039,228.536438 
	C86.126129,227.920609 86.087219,227.304779 86.048309,226.688950 
	C92.439720,225.099213 98.831131,223.509491 105.620712,221.775681 
	C108.364815,221.609848 110.710739,221.588074 113.760468,221.613419 
	C114.658279,221.662247 114.852287,221.663956 115.046288,221.665680 
	C117.327026,221.964996 119.607758,222.264328 122.317535,222.589752 
	C123.298775,222.800766 123.850975,222.985687 124.838356,223.361603 
	C125.273537,223.552612 125.735397,223.627762 125.735397,223.627762 
	C125.771454,224.058441 125.858871,224.863602 125.836288,224.866714 
	C122.851158,225.276123 119.857971,225.626816 116.052444,226.008545 
	C112.155472,227.022552 108.273468,226.046600 105.069252,229.878860 
	C110.513710,229.878860 114.762848,229.878860 119.011986,229.878876 
	C121.583656,230.521698 124.155334,231.164536 128.182953,232.171295 
	C125.661507,233.199921 124.441063,233.697784 123.003052,234.512009 
	C122.785484,234.828354 122.646492,234.747849 122.646492,234.747849 
	C121.831497,234.961716 121.016502,235.175583 120.063446,235.681168 
z"/>
<path fill="#C6A76F" opacity="1.000000" stroke="none" 
	d="
M118.999397,229.548843 
	C114.762848,229.878860 110.513710,229.878860 105.069252,229.878860 
	C108.273468,226.046600 112.155472,227.022552 115.642677,226.098297 
	C117.026031,227.179474 118.006424,228.199158 118.999397,229.548843 
z"/>
<path fill="#C9AC76" opacity="1.000000" stroke="none" 
	d="
M122.750244,234.756241 
	C123.290154,235.059097 123.865311,235.434067 124.440460,235.809052 
	C124.266090,235.999634 124.091713,236.190216 123.917336,236.380814 
	C123.574570,236.012268 123.231804,235.643738 122.767769,235.011520 
	C122.646492,234.747849 122.785484,234.828354 122.750244,234.756241 
z"/>
<path fill="#C9AC76" opacity="1.000000" stroke="none" 
	d="
M125.740822,223.445984 
	C125.735397,223.627762 125.273537,223.552612 125.131805,223.366486 
	C125.242134,223.208313 125.494186,223.236252 125.740822,223.445984 
z"/>
<path fill="#B4884B" opacity="1.000000" stroke="none" 
	d="
M229.147842,49.594826 
	C228.989990,49.625946 228.899841,49.582695 228.809677,49.539440 
	C228.944962,49.533112 229.080246,49.526783 229.147842,49.594826 
z"/>
<path fill="#9F7D50" opacity="1.000000" stroke="none" 
	d="
M114.931999,221.465393 
	C114.852287,221.663956 114.658279,221.662247 114.193390,221.553772 
	C113.922523,221.447037 113.960182,221.108841 113.999634,220.941986 
	C114.332458,220.884720 114.592003,221.048035 114.931999,221.465393 
z"/>
<path fill="#DBBF81" opacity="1.000000" stroke="none" 
	d="
M178.000137,246.000137 
	C178.000137,246.000137 177.807327,246.317413 177.807327,246.317413 
	C177.807327,246.317413 177.823288,246.087723 177.911652,246.043854 
	C178.000000,246.000000 178.000137,246.000137 178.000137,246.000137 
z"/>
<path fill="#DBBF81" opacity="1.000000" stroke="none" 
	d="
M177.997803,245.257980 
	C178.312805,245.152725 178.628998,245.294754 179.037094,245.691132 
	C178.941147,245.960648 178.753281,245.975784 178.282776,245.995529 
	C178.000137,246.000137 178.000000,246.000000 177.999939,245.999939 
	C177.999863,245.999863 177.998993,245.505280 177.997803,245.257980 
z"/>
<path fill="#B98F53" opacity="1.000000" stroke="none" 
	d="
M358.509338,250.515320 
	C358.484192,250.525696 358.534454,250.504959 358.509338,250.515320 
z"/>
</svg>